# AST/ASF file generated using VICON BodyLanguage
# -----------------------------------------------
:version 1.10
:name VICON
:units
  mass 1.0
  length 0.45
  angle deg
:documentation
   .ast/.asf automatically generated from VICON data using
   VICON BodyBuilder and BodyLanguage model FoxedUp or BRILLIANT.MOD
:root
   order TX TY TZ RX RY RZ
   axis XYZ
   position 0 0 0  
   orientation 0 0 0 
:bonedata
  begin
     id 1 
     name lhipjoint
     direction 0.646821 -0.743844 0.168282 
     length 2.62284 
     axis 0 0 0  XYZ
  end
  begin
     id 2 
     name lfemur
     direction 0.34202 -0.939693 0  
     length 7.79098  
     axis 0 0 20  XYZ
    dof rx ry rz
    limits (-160.0 20.0)
           (-70.0 70.0)
           (-60.0 70.0)
  end
  begin
     id 3 
     name ltibia
     direction 0.34202 -0.939693 0   
     length 8.1986   
     axis 0 0 20   XYZ
    dof rx
    limits (-10.0 170.0)
  end
  begin
     id 4 
     name lfoot
     direction 0.0766762 -0.210666 0.974546   
     length 1.95107   
     axis -90 7.62852e-016 20   XYZ
    dof rx rz
    limits (-45.0 90.0)
           (-70.0 20.0)
  end
  begin
     id 5 
     name ltoes
     direction 1.53582e-011 -4.21539e-011 1   
     length 0.983514   
     axis -90 7.62852e-016 20   XYZ
    dof rx
    limits (-90.0 20.0)
  end
  begin
     id 6 
     name rhipjoint
     direction -0.658967 -0.733632 0.165972   
     length 2.65935  
     axis 0 0 0  XYZ 
  end
  begin
     id 7 
     name rfemur
     direction -0.34202 -0.939693 0   
     length 7.69405   
     axis 0 0 -20   XYZ
    dof rx ry rz
    limits (-160.0 20.0)
           (-70.0 70.0)
           (-70.0 60.0)
  end
  begin
     id 8 
     name rtibia
     direction -0.34202 -0.939693 0   
     length 8.15138   
     axis 0 0 -20   XYZ
    dof rx
    limits (-10.0 170.0)
 end
 begin
     id 9 
     name rfoot
     direction -0.0806473 -0.221577 0.971802   
     length 2.09362  
     axis -90 -7.62852e-016 -20   XYZ
    dof rx rz
    limits (-45.0 90.0)
           (-20.0 70.0)
  end
  begin
     id 10 
     name rtoes
     direction -1.53524e-011 -4.2203e-011 1   
     length 1.05224   
     axis -90 -7.62852e-016 -20   XYZ
    dof rx
    limits (-90.0 20.0)
  end
  begin
     id 11 
     name lowerback
     direction -0.0484271 0.997202 0.0569433   
     length 1.86801   
     axis 0 0 0   XYZ
    dof rx ry rz
    limits (-20.0 45.0)
           (-30.0 30.0)
           (-30.0 30.0)
  end
  begin
     id 12 
     name upperback
     direction 0.0148864 0.998882 0.0448682   
     length 1.86634   
     axis 0 0 0   XYZ
    dof rx ry rz
    limits (-20.0 45.0)
           (-30.0 30.0)
           (-30.0 30.0)
  end
  begin
     id 13 
     name thorax
     direction 0.0368776 0.99918 0.0167067   
     length 1.87554   
     axis 0 0 0   XYZ
    dof rx ry rz
    limits (-20.0 45.0)
           (-30.0 30.0)
           (-30.0 30.0)
  end
  begin
     id 14 
     name lowerneck
     direction -0.0200531 0.999751 0.00976032   
     length 1.82429   
     axis 0 0 0   XYZ
    dof rx ry rz
    limits (-20.0 45.0)
           (-30.0 30.0)
           (-30.0 30.0)
  end
  begin
     id 15 
     name upperneck
     direction 0.0113135 0.99728 -0.0728357   
     length 1.79098   
     axis 0 0 0   XYZ
    dof rx ry rz
    limits (-20.0 45.0)
           (-30.0 30.0)
           (-30.0 30.0)
  end
  begin
     id 16
     name head
     direction 0.00559662 0.999607 -0.0274604  
     length 1.88003  
     axis 0 0 0   XYZ
    dof rx ry rz
    limits (-20.0 45.0)
           (-30.0 30.0)
           (-30.0 30.0)
  end
  begin
     id 17 
     name lclavicle
     direction 0.931914 0.362632 -0.00585704  
     length 3.94155  
     axis 0 0 0   XYZ
    dof ry rz
    limits (-20.0 10.0)
           (0.0 20.0)
  end
  begin
     id 18 
     name lhumerus
     direction 1 -4.48969e-011 2.13403e-027   
     length 5.77473   
     axis 180 -30 -90   XYZ
    dof rx ry rz
    limits (-60.0 90.0)
           (-90.0 90.0)
           (-90.0 90.0)
  end
  begin
     id 19
     name lradius
     direction 1 -4.48969e-011 5.41017e-027   
     length 3.53732   
     axis 180 -30 -90   XYZ
    dof rx
    limits (-10.0 170.0)
  end
  begin
     id 20
     name lwrist
     direction 1 -4.48986e-011 1.36145e-026   
     length 1.76866   
     axis -8.75986e-015 90 90   XYZ
    dof ry
    limits (-180.0 0.0)
 end
  begin
     id 21 
     name lhand
     direction 1 -4.48703e-011 2.72291e-026   
     length 0.556229   
     axis -1.73745e-014 90 90   XYZ
    dof rx rz
    limits (-90.0 90.0)
           (-45.0 45.0)
  end
  begin
     id 22 
     name lfingers
     direction 1 -4.49204e-011 5.44582e-026   
     length 0.448446   
     axis -3.4749e-014 90 90   XYZ
    dof rx
    limits (0.0 90.0)
  end
  begin
     id 23
     name lthumb
     direction 0.707107 -6.34773e-011 0.707107   
     length 0.643881   
     axis -90 45 2.85299e-015   XYZ
    dof rx rz
    limits (-45.0 45.0)
           (-45.0 45.0)
  end
  begin
     id 24 
     name rclavicle
     direction -0.951782 0.300043 0.0639076   
     length 3.96398  
     axis 0 0 0   XYZ 
    dof ry rz
    limits (-10.0 20.0)
           (-20.0 0.0)
  end
  begin
     id 25 
     name rhumerus
     direction -1 -4.48967e-011 6.14867e-028  
     length 5.79581   
     axis 180 30 90   XYZ
    dof rx ry rz
    limits (-90.0 60.0)
           (-90.0 90.0)
           (-90.0 90.0)
  end
  begin
     id 26 
     name rradius
     direction -1 -4.48966e-011 9.26908e-027   
     length 3.37412   
     axis 180 30 90   XYZ
    dof rx
    limits (-10.0 170.0)
  end
  begin
     id 27 
     name rwrist
     direction -1 -4.48999e-011 1.36145e-026   
     length 1.68706   
     axis -8.75986e-015 -90 -90   XYZ
    dof ry
    limits (-180.0 0.0)
  end
  begin
     id 28
     name rhand
     direction -1 -4.49032e-011 2.72291e-026   
     length 0.680496   
     axis -1.73745e-014 -90 -90   XYZ
    dof rx rz
    limits (-90.0 90.0)
           (-45.0 45.0)
  end
  begin
     id 29
     name rfingers
     direction -1 -4.48876e-011 5.44582e-026   
     length 0.548633   
     axis -3.4749e-014 -90 -90   XYZ
    dof rx
    limits (0.0 90.0)
  end
  begin
     id 30
     name rthumb
     direction -0.707107 -6.34964e-011 0.707107   
     length 0.787731   
     axis -90 -45 -2.85299e-015   XYZ
    dof rx rz
    limits (-45.0 45.0)
           (-45.0 45.0)
  end
:hierarchy
  begin
    root lhipjoint rhipjoint lowerback
    lhipjoint lfemur
    lfemur ltibia
    ltibia lfoot
    lfoot ltoes
    rhipjoint rfemur
    rfemur rtibia
    rtibia rfoot
    rfoot rtoes
    lowerback upperback
    upperback thorax
    thorax lowerneck lclavicle rclavicle
    lowerneck upperneck
    upperneck head
    lclavicle lhumerus
    lhumerus lradius
    lradius lwrist
    lwrist lhand lthumb
    lhand lfingers
    rclavicle rhumerus
    rhumerus rradius
    rradius rwrist
    rwrist rhand rthumb
    rhand rfingers
  end

#!OML:ASF H:\Terrain\Patient Classification 1\PaulMetrics\March1\PaulMetrics.ASF
:FULLY-SPECIFIED
:DEGREES
173
root 19.0054 18.1887 3.6096 8.89702 -15.724 7.51294
lowerback -5.59343 -2.48672 -7.33246
upperback -5.68117 -3.08963 0.982234
thorax -2.34548 -1.30461 5.01351
lowerneck -5.02394 2.04592 -0.771578
upperneck 11.3623 3.01225 -1.71096
head 4.68722 1.35288 -0.274101
rclavicle -3.24516e-014 -2.62396e-014
rhumerus -58.7464 19.8879 -97.3833
rradius 42.101
rwrist -9.80352
rhand -10.3305 -33.468
rfingers 7.12502
rthumb 15.6654 -62.8538
lclavicle -3.24516e-014 -2.62396e-014
lhumerus -38.6044 -22.0177 80.6425
lradius 84.3299
lwrist 13.2575
lhand -26.0755 -6.92032
lfingers 7.12502
lthumb 0.472787 23.0589
rfemur -35.2148 6.21062 16.6756
rtibia 8.99695
rfoot -18.0723 -28.9039
rtoes -5.0809
lfemur -2.50987 1.12432 -27.9951
ltibia 21.6839
lfoot -20.1335 -0.798232
ltoes -22.3254
174
root 18.9193 18.1621 3.78418 8.72347 -15.828 7.82462
lowerback -5.67343 -2.48937 -7.50987
upperback -5.63779 -3.07973 0.916949
thorax -2.25352 -1.29991 5.04073
lowerneck -5.05679 1.92837 -0.596562
upperneck 11.2956 2.87588 -2.05754
head 4.67897 1.27591 -0.430352
rclavicle -3.9906e-014 -6.36111e-015
rhumerus -58.547 19.4926 -97.1323
rradius 42.0418
rwrist -9.18709
rhand -9.91938 -33.5009
rfingers 7.12502
rthumb 16.0613 -62.8553
lclavicle -3.9906e-014 -6.36111e-015
lhumerus -38.8643 -21.8838 80.8731
lradius 84.3616
lwrist 13.2803
lhand -26.2469 -7.21583
lfingers 7.12502
lthumb 0.307309 22.7637
rfemur -35.8077 5.74594 16.8915
rtibia 11.1291
rfoot -17.2924 -29.208
rtoes -9.36825
lfemur -2.06362 1.40533 -28.0614
ltibia 22.242
lfoot -19.4139 -1.11784
ltoes -23.4113
175
root 18.8403 18.1404 3.97047 9.11541 -16.2253 7.87394
lowerback -6.45632 -2.36331 -7.21607
upperback -5.69468 -2.86262 0.872694
thorax -1.92094 -1.21336 4.81061
lowerneck -5.1404 1.75599 -0.693051
upperneck 11.2368 2.65947 -2.11932
head 4.67201 1.1622 -0.445746
rclavicle -3.94091e-014 7.15625e-015
rhumerus -58.4871 19.2005 -96.9607
rradius 42.0611
rwrist -9.1287
rhand -10.1079 -32.9568
rfingers 7.12502
rthumb 15.8798 -62.3257
lclavicle -3.94091e-014 7.15625e-015
lhumerus -39.1789 -21.774 81.1927
lradius 84.2524
lwrist 13.2025
lhand -26.7525 -8.14314
lfingers 7.12502
lthumb -0.18105 21.8365
rfemur -36.9361 3.78001 18.5222
rtibia 13.4201
rfoot -14.5798 -27.8914
rtoes -15.2715
lfemur -2.14305 1.78962 -27.9566
ltibia 22.7992
lfoot -18.6049 -1.36539
ltoes -23.2017
176
root 18.7558 18.1349 4.15589 9.13379 -16.376 8.08313
lowerback -6.71887 -2.40295 -7.17771
upperback -5.82428 -2.90219 0.870159
thorax -1.90787 -1.23226 4.77676
lowerneck -5.12533 1.65714 -0.607316
upperneck 11.2977 2.55879 -2.47133
head 4.69878 1.09704 -0.586596
rclavicle 1.96797e-014 -1.51076e-014
rhumerus -58.8363 19.4569 -97.2396
rradius 42.1314
rwrist -9.54853
rhand -10.3179 -32.8559
rfingers 7.12502
rthumb 15.6775 -62.2407
lclavicle 1.96797e-014 -1.51076e-014
lhumerus -39.8344 -21.5322 81.6261
lradius 83.9266
lwrist 13.2631
lhand -26.8075 -8.70877
lfingers 7.12502
lthumb -0.234121 21.2708
rfemur -37.5649 2.50901 19.4247
rtibia 15.479
rfoot -11.9043 -27.261
rtoes -18.0785
lfemur -1.94867 2.12345 -27.9067
ltibia 23.5217
lfoot -17.5875 -2.04013
ltoes -21.7095
177
root 18.6535 18.1451 4.34291 8.92013 -16.4337 8.1225
lowerback -6.81349 -2.47419 -7.07372
upperback -5.84691 -2.99522 0.886577
thorax -1.86957 -1.28298 4.72612
lowerneck -5.06846 1.63821 -0.368467
upperneck 11.3506 2.55748 -2.88103
head 4.71904 1.08488 -0.769476
rclavicle -2.43014e-014 7.15625e-015
rhumerus -59.0236 19.5243 -97.4371
rradius 42.1701
rwrist -9.66212
rhand -10.2363 -33.0323
rfingers 7.12502
rthumb 15.7561 -62.411
lclavicle -2.43014e-014 7.15625e-015
lhumerus -40.4948 -21.3201 81.9827
lradius 83.6475
lwrist 13.3313
lhand -26.7244 -8.64191
lfingers 7.12502
lthumb -0.153906 21.3378
rfemur -37.82 2.42773 19.7081
rtibia 17.3678
rfoot -10.4603 -27.2311
rtoes -14.4482
lfemur -1.64703 2.58564 -27.5352
ltibia 24.5269
lfoot -15.9813 -3.10509
ltoes -18.0224
